<svg width="41" height="48" viewBox="0 0 41 48" fill="none" xmlns="http://www.w3.org/2000/svg">
<g clip-path="url(#clip0)">
<path d="M34.1828 46.08C31.5437 48.6048 28.6318 48.2112 25.8562 47.0208C22.9054 45.8064 20.2078 45.7296 17.0914 47.0208C13.2105 48.672 11.1508 48.192 8.81349 46.08C-4.38248 32.688 -2.43473 12.288 12.5629 11.52C16.2003 11.712 18.747 13.5024 20.8895 13.6512C24.0741 13.0128 27.1223 11.184 30.5308 11.424C34.626 11.7504 37.6888 13.344 39.7339 16.2096C31.3099 21.2016 33.3064 32.1456 41.0438 35.2176C39.4953 39.2256 37.5086 43.1856 34.178 46.1136L34.1828 46.08ZM20.5973 11.376C20.2029 5.424 25.0966 0.528004 30.7256 0.0480042C31.4998 6.912 24.3954 12.048 20.5973 11.376Z" fill="white"/>
</g>
<defs>
<clipPath id="clip0">
<rect width="41" height="48" fill="white"/>
</clipPath>
</defs>
</svg>
