<svg width="131" height="62" viewBox="0 0 131 62" fill="none" xmlns="http://www.w3.org/2000/svg">
<g filter="url(#filter0_d)">
<path d="M41.919 20.8674C42.572 16.4627 39.2025 14.079 34.553 12.4985L36.068 6.51326L32.4112 5.60642L30.9485 11.4362C29.982 11.203 28.9894 10.9698 27.9969 10.7625L29.4596 4.90685L25.8028 4L24.3139 9.95928C23.5042 9.77791 22.7206 9.59654 21.9631 9.41517V9.38927L16.8957 8.14559L15.9293 12.0321C15.9293 12.0321 18.6458 12.6539 18.5936 12.6798C20.0824 13.0426 20.3436 14.0271 20.2914 14.8044L18.5674 21.6188C18.6719 21.6447 18.8025 21.6706 18.9592 21.7483C18.8286 21.7224 18.698 21.6965 18.5674 21.6447L16.1644 31.1795C15.9815 31.62 15.5114 32.2936 14.4927 32.0345C14.5188 32.0864 11.8284 31.3868 11.8284 31.3868L10 35.5583L14.78 36.7502C15.6681 36.9833 16.5301 37.1906 17.392 37.4238L15.8771 43.4608L19.5339 44.3677L21.0489 38.3825C22.0414 38.6416 23.034 38.9007 23.9743 39.1339L22.4855 45.0932L26.1423 46L27.6573 39.963C33.9262 41.1289 38.6278 40.6626 40.5868 35.0401C42.1802 30.5318 40.5085 27.9149 37.2173 26.2048C39.6465 25.6607 41.4488 24.0802 41.919 20.8674ZM33.5344 32.5268C32.4112 37.0352 24.7318 34.5996 22.2504 33.9778L24.2617 25.9716C26.7431 26.5935 34.7359 27.8112 33.5344 32.5268ZM34.6836 20.7896C33.6388 24.9093 27.2655 22.8106 25.202 22.2924L27.0304 15.0376C29.0939 15.5558 35.7546 16.5145 34.6836 20.7896Z" fill="white"/>
</g>
<g filter="url(#filter1_d)">
<path d="M50.8016 32V20.625H54.7859C56.1661 20.625 57.213 20.8906 57.9266 21.4219C58.6401 21.9479 58.9969 22.7214 58.9969 23.7422C58.9969 24.2995 58.8536 24.7917 58.5672 25.2188C58.2807 25.6406 57.8823 25.9505 57.3719 26.1484C57.9552 26.2943 58.4135 26.5885 58.7469 27.0312C59.0854 27.474 59.2547 28.0156 59.2547 28.6562C59.2547 29.75 58.9057 30.5781 58.2078 31.1406C57.5099 31.7031 56.5151 31.9896 55.2234 32H50.8016ZM53.1453 27.0469V30.1172H55.1531C55.7052 30.1172 56.1349 29.987 56.4422 29.7266C56.7547 29.4609 56.9109 29.0964 56.9109 28.6328C56.9109 27.5911 56.3719 27.0625 55.2938 27.0469H53.1453ZM53.1453 25.3906H54.8797C56.062 25.3698 56.6531 24.8984 56.6531 23.9766C56.6531 23.4609 56.5021 23.0911 56.2 22.8672C55.9031 22.638 55.4318 22.5234 54.7859 22.5234H53.1453V25.3906ZM65.1125 32H62.7688V20.625H65.1125V32ZM77.2203 22.5234H73.7359V32H71.3922V22.5234H67.9547V20.625H77.2203V22.5234ZM88.875 28.2109C88.7865 29.4349 88.3333 30.3984 87.5156 31.1016C86.7031 31.8047 85.6302 32.1562 84.2969 32.1562C82.8385 32.1562 81.6901 31.6667 80.8516 30.6875C80.0182 29.7031 79.6016 28.3542 79.6016 26.6406V25.9453C79.6016 24.8516 79.7943 23.888 80.1797 23.0547C80.5651 22.2214 81.1146 21.5833 81.8281 21.1406C82.5469 20.6927 83.3802 20.4688 84.3281 20.4688C85.6406 20.4688 86.6979 20.8203 87.5 21.5234C88.3021 22.2266 88.7656 23.2135 88.8906 24.4844H86.5469C86.4896 23.75 86.2839 23.2188 85.9297 22.8906C85.5807 22.5573 85.0469 22.3906 84.3281 22.3906C83.5469 22.3906 82.9609 22.6719 82.5703 23.2344C82.1849 23.7917 81.987 24.6589 81.9766 25.8359V26.6953C81.9766 27.9245 82.1615 28.8229 82.5312 29.3906C82.9062 29.9583 83.4948 30.2422 84.2969 30.2422C85.0208 30.2422 85.5599 30.0781 85.9141 29.75C86.2734 29.4167 86.4792 28.9036 86.5312 28.2109H88.875ZM101.358 26.5703C101.358 27.6901 101.16 28.6719 100.764 29.5156C100.368 30.3594 99.8005 31.0104 99.0609 31.4688C98.3266 31.9271 97.4828 32.1562 96.5297 32.1562C95.587 32.1562 94.7458 31.9297 94.0063 31.4766C93.2667 31.0234 92.6938 30.3776 92.2875 29.5391C91.8813 28.6953 91.6755 27.7266 91.6703 26.6328V26.0703C91.6703 24.9505 91.8708 23.9661 92.2719 23.1172C92.6781 22.263 93.2484 21.6094 93.9828 21.1562C94.7224 20.6979 95.5661 20.4688 96.5141 20.4688C97.462 20.4688 98.3031 20.6979 99.0375 21.1562C99.7771 21.6094 100.347 22.263 100.748 23.1172C101.155 23.9661 101.358 24.9479 101.358 26.0625V26.5703ZM98.9828 26.0547C98.9828 24.862 98.7693 23.9557 98.3422 23.3359C97.9151 22.7161 97.3057 22.4062 96.5141 22.4062C95.7276 22.4062 95.1208 22.7135 94.6938 23.3281C94.2667 23.9375 94.0505 24.8333 94.0453 26.0156V26.5703C94.0453 27.7318 94.2589 28.6328 94.6859 29.2734C95.113 29.9141 95.7276 30.2344 96.5297 30.2344C97.3161 30.2344 97.9203 29.9271 98.3422 29.3125C98.7641 28.6927 98.9776 27.7917 98.9828 26.6094V26.0547ZM107.153 32H104.809V20.625H107.153V32ZM120.183 32H117.839L113.277 24.5156V32H110.933V20.625H113.277L117.847 28.125V20.625H120.183V32Z" fill="white"/>
</g>
<defs>
<filter id="filter0_d" x="0" y="0" width="52" height="62" filterUnits="userSpaceOnUse" color-interpolation-filters="sRGB">
<feFlood flood-opacity="0" result="BackgroundImageFix"/>
<feColorMatrix in="SourceAlpha" type="matrix" values="0 0 0 0 0 0 0 0 0 0 0 0 0 0 0 0 0 0 127 0"/>
<feOffset dy="6"/>
<feGaussianBlur stdDeviation="5"/>
<feColorMatrix type="matrix" values="0 0 0 0 0 0 0 0 0 0 0 0 0 0 0 0 0 0 0.1 0"/>
<feBlend mode="normal" in2="BackgroundImageFix" result="effect1_dropShadow"/>
<feBlend mode="normal" in="SourceGraphic" in2="effect1_dropShadow" result="shape"/>
</filter>
<filter id="filter1_d" x="40.8016" y="16.4688" width="89.3813" height="31.6875" filterUnits="userSpaceOnUse" color-interpolation-filters="sRGB">
<feFlood flood-opacity="0" result="BackgroundImageFix"/>
<feColorMatrix in="SourceAlpha" type="matrix" values="0 0 0 0 0 0 0 0 0 0 0 0 0 0 0 0 0 0 127 0"/>
<feOffset dy="6"/>
<feGaussianBlur stdDeviation="5"/>
<feColorMatrix type="matrix" values="0 0 0 0 0 0 0 0 0 0 0 0 0 0 0 0 0 0 0.1 0"/>
<feBlend mode="normal" in2="BackgroundImageFix" result="effect1_dropShadow"/>
<feBlend mode="normal" in="SourceGraphic" in2="effect1_dropShadow" result="shape"/>
</filter>
</defs>
</svg>
