<svg id="Layer_1" data-name="Layer 1" xmlns="http://www.w3.org/2000/svg" viewBox="0 0 131.19 39"><defs><style>.cls-1{fill:#fff;}</style></defs><path class="cls-1" d="M711.9,404.33a5.21,5.21,0,0,0-2.68-.68h-3.5V415h3.52a5.31,5.31,0,0,0,2.68-.68,4.66,4.66,0,0,0,1.84-1.92,5.87,5.87,0,0,0,.66-2.82v-.52a5.94,5.94,0,0,0-.67-2.83A4.69,4.69,0,0,0,711.9,404.33Zm.14,5.34a4.07,4.07,0,0,1-.74,2.57,2.56,2.56,0,0,1-2.1.9h-1.14v-7.59h1.16a2.55,2.55,0,0,1,2.1.89,4.12,4.12,0,0,1,.72,2.63Z" transform="translate(-662.52 -389.02)"/><rect class="cls-1" x="115.82" y="14.62" width="2.34" height="11.38"/><polygon class="cls-1" points="128.86 14.63 128.86 22.13 124.29 14.63 121.94 14.63 121.94 26 124.29 26 124.29 18.52 128.85 26 131.19 26 131.19 14.63 128.86 14.63"/><path class="cls-1" d="M724.75,404.18a5,5,0,0,0-5,0,4.52,4.52,0,0,0-1.72,2,6.85,6.85,0,0,0-.6,2.95v.57a6.68,6.68,0,0,0,.62,2.9,4.52,4.52,0,0,0,1.72,1.94,4.76,4.76,0,0,0,2.52.68,4.64,4.64,0,0,0,2.53-.69,4.52,4.52,0,0,0,1.71-1.95,7,7,0,0,0,.59-3v-.5a6.7,6.7,0,0,0-.61-2.95A4.44,4.44,0,0,0,724.75,404.18Zm0,5.45a4.84,4.84,0,0,1-.65,2.71,2.24,2.24,0,0,1-3.65,0,4.85,4.85,0,0,1-.64-2.71V409a4.66,4.66,0,0,1,.65-2.69,2.25,2.25,0,0,1,3.64,0,4.75,4.75,0,0,1,.65,2.72Z" transform="translate(-662.52 -389.02)"/><path class="cls-1" d="M733.11,406.28a2.07,2.07,0,0,1,1.82-.9,2.18,2.18,0,0,1,1.47.46,2.2,2.2,0,0,1,.69,1.43h2.28a4.12,4.12,0,0,0-1.35-2.81,5.41,5.41,0,0,0-5.7-.3,4.24,4.24,0,0,0-1.66,1.9,7,7,0,0,0-.57,2.95v.77a6.61,6.61,0,0,0,.62,2.88,4.36,4.36,0,0,0,1.72,1.88,5.08,5.08,0,0,0,2.59.64,7.68,7.68,0,0,0,2.56-.41,4.16,4.16,0,0,0,1.79-1.18v-4.54H734.9v1.72H737v2a2.58,2.58,0,0,1-1.88.57,2.35,2.35,0,0,1-2-.92,4.52,4.52,0,0,1-.67-2.7V409A4.66,4.66,0,0,1,733.11,406.28Z" transform="translate(-662.52 -389.02)"/><polygon class="cls-1" points="82.7 21.07 87.2 21.07 87.2 19.23 82.7 19.23 82.7 16.52 87.97 16.52 87.97 14.63 80.36 14.63 80.36 26 87.98 26 87.98 24.12 82.7 24.12 82.7 21.07"/><path class="cls-1" d="M756.1,406.26a2,2,0,0,1,1.76-.85,2.24,2.24,0,0,1,1.6.5,2.34,2.34,0,0,1,.62,1.6h2.34a4.26,4.26,0,0,0-1.39-3,4.6,4.6,0,0,0-3.17-1.06,4.69,4.69,0,0,0-2.5.67,4.39,4.39,0,0,0-1.65,1.92,6.87,6.87,0,0,0-.57,2.89v.69a6,6,0,0,0,1.25,4,4.27,4.27,0,0,0,3.44,1.47,4.72,4.72,0,0,0,3.22-1.06,4,4,0,0,0,1.36-2.89h-2.34a2.26,2.26,0,0,1-.62,1.54,2.31,2.31,0,0,1-1.62.5,2,2,0,0,1-1.76-.86,5,5,0,0,1-.56-2.69v-.86A4.73,4.73,0,0,1,756.1,406.26Z" transform="translate(-662.52 -389.02)"/><path class="cls-1" d="M772.57,404.18a4.63,4.63,0,0,0-2.52-.69,4.68,4.68,0,0,0-2.53.69,4.44,4.44,0,0,0-1.71,2,6.85,6.85,0,0,0-.61,2.95v.57a6.83,6.83,0,0,0,.62,2.9,4.52,4.52,0,0,0,1.72,1.94,4.76,4.76,0,0,0,2.52.68,4.69,4.69,0,0,0,2.54-.69,4.57,4.57,0,0,0,1.7-1.95,7,7,0,0,0,.59-3v-.5a6.7,6.7,0,0,0-.61-2.95A4.44,4.44,0,0,0,772.57,404.18Zm-.05,5.45a4.93,4.93,0,0,1-.64,2.71,2.25,2.25,0,0,1-3.66,0,4.85,4.85,0,0,1-.64-2.71V409a4.66,4.66,0,0,1,.65-2.69,2.26,2.26,0,0,1,3.65,0,4.83,4.83,0,0,1,.64,2.72Z" transform="translate(-662.52 -389.02)"/><path class="cls-1" d="M696.71,408.46c0-.09,0-.24,0-.27-.24-.15-.14-.39-.17-.59-.07-.44-.15-.88-.23-1.32,0,0,0,0,0-.06-.12-.3-.27-.59-.37-.89s-.16-.66-.25-1c0,0,0,0,0-.06l-.81-1.46c-.09-.16-.15-.33-.24-.49s-.32-.62-.49-.92c0-.06-.09-.1-.12-.15l-.35-.6a2.38,2.38,0,0,0,.12-.33c0-.15-.05-.36,0-.44.31-.35.16-.75.2-1.12a2.19,2.19,0,0,1,0-.27c0-.17.17-.33.16-.49a24.63,24.63,0,0,0-.16-4,6.91,6.91,0,0,0-.5-1.95c-.17-.3-.24-.69-.59-.89a1,1,0,0,1-.28-.33,1.74,1.74,0,0,0-1.31-.71,3.6,3.6,0,0,0-2.6.42,4.27,4.27,0,0,0-.51.3c-.63.62-1.24,1.26-1.87,1.89s-1.35,1.41-2.07,2.07c-.22.2-.42.8-.92.32,0,0-.09,0-.14,0l-1.49-.22-.1,0a4,4,0,0,0-.49-.16c-.2,0-.41,0-.62,0s-.5.07-.49-.33c0-.09-.16-.19-.24-.29a1.53,1.53,0,0,1-.16-.25c-.16-.31-.24-.67-.57-.87a.25.25,0,0,1-.11-.12,9.49,9.49,0,0,0-.5-.95c-.19-.29-.43-.55-.64-.82a4,4,0,0,0-1.58-1.42,3.29,3.29,0,0,1-.49-.26,1.74,1.74,0,0,0-1.06-.34c-.2,0-.42,0-.62,0-.4.06-.8.14-1.2.22,0,0-.08.08-.12.12s-.18.24-.27.25c-.62.05-.61.69-.94,1a2.16,2.16,0,0,0-.47,1.09c-.08.46-.19.93-.23,1.39-.08.93,0,1.87,0,2.81a.55.55,0,0,0,.1.31c.17.23.2.43,0,.62s-.52.4-.77.6H670a3.27,3.27,0,0,0-.93.55,4,4,0,0,1-1.24.74,6.9,6.9,0,0,0-1.14.77c-.22.2-.35.53-.53.72-.36.37-.47.85-.78,1.22a1.18,1.18,0,0,0-.24.6,1.91,1.91,0,0,1-.49,1,1,1,0,0,0-.14.21,3.08,3.08,0,0,1-.27.64,2,2,0,0,0-.44.95,2.94,2.94,0,0,1-.24.8,3.94,3.94,0,0,0-.36.85c-.07.45-.36.86-.23,1.34,0,0,0,.09,0,.1-.37.38-.14.86-.2,1.28,0,.1,0,.27,0,.3-.31.2-.18.5-.18.76,0,.69,0,1.39,0,2.08,0,.08,0,.2,0,.24.38.37.13.83.2,1.24,0,.11,0,.29,0,.33.28.17.15.43.18.65.07.43.15.85.23,1.27,0,0,0,.06,0,.08a3.23,3.23,0,0,1,.15.34c0,.1,0,.22.05.3a2.16,2.16,0,0,1,.4.93,2.21,2.21,0,0,0,.32.63,6.08,6.08,0,0,1,.33.61,2.22,2.22,0,0,0,.53.9s.09.08.1.12a4,4,0,0,0,.71,1.14c.11.18.31.29.44.46s.19.35.32.49a19.28,19.28,0,0,0,2.57,2.38c.08.06.14.17.23.2a8,8,0,0,1,1.13.67c.08.05.13.16.21.19.36.18.74.32,1.1.5s.65.4,1,.58a1.94,1.94,0,0,0,.53.23c.33.09.67.15,1,.22,0,0,.06,0,.06,0,.12.28.37.18.57.2a1.27,1.27,0,0,1,.28,0,5.41,5.41,0,0,0,1.13.39c.56.07,1.13.15,1.7.2a30.25,30.25,0,0,0,3.3,0,1.07,1.07,0,0,0,.3-.06c.13,0,.27-.16.38-.13a4.91,4.91,0,0,0,1.87-.28,4.13,4.13,0,0,1,.89-.19l.12-.06c.31-.12.61-.26.92-.37l.81-.27a4.78,4.78,0,0,0,.45-.23l.6-.35c.42-.23.83-.48,1.26-.68s.7-.49,1.09-.68a6.09,6.09,0,0,0,1.18-.94c.11-.09.19-.22.3-.33.48-.48,1-.95,1.45-1.45.28-.32.44-.74.83-1,0,0,0-.06,0-.09l.61-1c.09-.15.17-.31.25-.47s.15-.34.24-.49.27-.38.38-.59a4.47,4.47,0,0,0,.25-.6c.06-.15.13-.29.18-.44s.18-.54.26-.82c0-.05,0-.15,0-.16.29-.15.17-.42.2-.64s0-.18,0-.2c.27-.17.16-.43.19-.66,0-.08,0-.21,0-.23.27-.17.16-.43.17-.65s0-.58,0-.87a.86.86,0,0,1,0-.27c0-.14.15-.27.15-.4,0-.79,0-1.58,0-2.37,0-.08,0-.19,0-.24C696.53,409.39,696.78,408.9,696.71,408.46Zm-2.45,4.36c-.12.14,0,.47,0,.71a4.48,4.48,0,0,1-.16.52c0,.05,0,.09,0,.13-.08.39-.12.79-.23,1.17a8.79,8.79,0,0,1-.38.91c0,.06,0,.14,0,.2-.11.27-.23.54-.36.8s-.2.42-.31.62-.11.2-.17.3l-.69,1.12a1.83,1.83,0,0,1-.21.26,17.48,17.48,0,0,1-2.42,2.59,9.27,9.27,0,0,1-1.16.76s-.06.09-.11.11l-.94.56-.6.34a3.09,3.09,0,0,1-.44.24c-.25.1-.52.16-.78.26s-.46.19-.69.28a1.53,1.53,0,0,1-.39.14c-.21,0-.44,0-.59.2,0,0-.19,0-.29,0s-.42-.1-.53.19c0,0-.2,0-.3.05-.36.06-.78-.17-1.09.19,0,0-.14,0-.21,0h-2.71a2,2,0,0,1-.38-.15c-.11,0-.22,0-.33-.06-.36-.07-.71.09-1.09-.18a3.7,3.7,0,0,0-1.25-.29,6.44,6.44,0,0,1-.74-.25l-.45-.17c-.22-.09-.45-.16-.67-.26s-.51-.24-.75-.38a12.51,12.51,0,0,0-1.25-.79c-.46-.21-.7-.7-1.1-.88-.9-.4-1.29-1.3-2-1.82-.07-.52-.68-.67-.78-1.21,0-.29-.39-.52-.58-.79s-.29-.51-.44-.77l-.42-.72s0,0,0-.06c-.08-.32-.13-.66-.23-1s-.24-.61-.37-.91l0-.09c-.07-.61-.14-1.21-.22-1.81,0-.17-.11-.34-.16-.52a.86.86,0,0,1-.05-.27c0-.63,0-1.25,0-1.88,0-.16.17-.31.19-.48s0-.48,0-.73-.11-.53.18-.71c0,0,0-.07,0-.1a4.86,4.86,0,0,1,.24-1.17c.22-.43.18-1,.59-1.3a.2.2,0,0,0,0-.13,3.28,3.28,0,0,1,.79-1.59,1.72,1.72,0,0,0,.26-.48c.1-.25.15-.52.26-.77a4.11,4.11,0,0,0,.36-.73c.07-.44.41-.59.67-.83a3.73,3.73,0,0,1,.63-.4l.92-.5c.24-.14.49-.27.74-.4H671c.26-.2.52-.41.8-.59a7.23,7.23,0,0,1,.87-.46,1.26,1.26,0,0,0,.78-1.12v-1c0-.23.06-.46-.17-.64,0,0,0-.17,0-.26,0-.82,0-1.63,0-2.44a1.56,1.56,0,0,1,.13-.4,1,1,0,0,0,.07-.33,1.36,1.36,0,0,1,.48-1,.52.52,0,0,1,.46-.07,3.7,3.7,0,0,1,1.34,1.08,13.57,13.57,0,0,1,.91,1.33.68.68,0,0,1,.12.12c.18.28.36.56.52.86a5.37,5.37,0,0,1,.57,1.12,2.24,2.24,0,0,0,.7.92.68.68,0,0,0,.36.15c.59,0,1.19,0,1.77,0a3.12,3.12,0,0,1,1.46.39.09.09,0,0,0,.07,0c.62,0,1.19.28,1.83.25a1.83,1.83,0,0,0,1.44-.62c.67-.76,1.42-1.44,2.13-2.16l2.15-2.17a.85.85,0,0,1,1.38.26c.14.28.23.57.35.85l-.14.06c.08.18.17.37.24.55a.9.9,0,0,1,0,.28c0,1,0,2,0,2.95a1.1,1.1,0,0,1-.12.33c0,.11-.06.21-.08.32,0,.28.12.6-.19.83,0,0,0,.16,0,.24s.07.47-.21.63,0,1,.1,1.1.1.11.1.17a2.22,2.22,0,0,0,.57,1.18,9.06,9.06,0,0,1,.72,1.34c.2.35.43.68.61,1a5.29,5.29,0,0,1,.27.76l.36,1s0,.06,0,.09c.08.44.15.88.22,1.32,0,.1,0,.19.08.29a1.44,1.44,0,0,1,.13.32c0,.23,0,.46,0,.7s-.06.44.18.59c.05,0,0,.18,0,.27,0,.58,0,1.16,0,1.74A1,1,0,0,1,694.26,412.82Z" transform="translate(-662.52 -389.02)"/><path class="cls-1" d="M668.57,411.32c-.28.18-.2.45-.16.66a1.35,1.35,0,0,0,.36.59,1.25,1.25,0,0,0,1,.41h1.39a.56.56,0,0,0,.64-.56c0-.1.12-.26.21-.27a2,2,0,0,0,.76-.2,1.17,1.17,0,0,0,.72-1.1,1.92,1.92,0,0,0-.18-1.14c-.14-.22-.21-.43-.5-.49a3,3,0,0,1-.55-.25,3.18,3.18,0,0,0-1.05-.38,4.07,4.07,0,0,0-2.13.17c-.17.1-.42.09-.57.27s-.45.36-.47.56c0,.44-.2,1,.35,1.27A.89.89,0,0,1,668.57,411.32Z" transform="translate(-662.52 -389.02)"/><path class="cls-1" d="M677.2,415.35c-.36.21-.68.1-1,.16a2.2,2.2,0,0,0-.37.06c-.16,0-.3.12-.45.15-.33.06-.7-.13-1,.19,0,0-.15,0-.22,0a1.91,1.91,0,0,1-.32-.16c-.21-.12-.42-.27-.64-.37a4,4,0,0,0-.73-.26c-.37-.09-.74-.15-1.1-.23a.16.16,0,0,1-.07-.07.69.69,0,0,0-.7-.34s-.1-.05-.15-.07-.23-.15-.34-.15c-.41,0-.82-.12-1.23.2s-.68.51-.7.87c0,.09,0,.23,0,.26.36.23.52.8,1.09.69a.17.17,0,0,1,.13,0c.1.28.33.18.52.19s.26,0,.3,0c.17.26.42.18.65.19.42,0,.84,0,1.25,0a.94.94,0,0,1,.3.06,3.07,3.07,0,0,0,.46.15c.42,0,.83,0,1.25,0h1.32c.09,0,.23,0,.27,0,.22-.27.51-.14.77-.19s.79-.16,1.18-.25a.24.24,0,0,0,.08-.06,3.47,3.47,0,0,0,.56-.59.77.77,0,0,0,0-.48C678,415.31,677.5,415.18,677.2,415.35Z" transform="translate(-662.52 -389.02)"/><path class="cls-1" d="M671.1,406.24a.66.66,0,0,0,.57,0c.56-.53,1.25-1,1.16-1.94,0-.59,0-.6-.42-1a2.93,2.93,0,0,0-.51-.32,1.5,1.5,0,0,0-1.17.13,2.57,2.57,0,0,0-.67.88,2,2,0,0,0,.06,1.51A2.27,2.27,0,0,0,671.1,406.24Z" transform="translate(-662.52 -389.02)"/><path class="cls-1" d="M682.38,405.65a3.78,3.78,0,0,0-1.61-1.21,2.42,2.42,0,0,0-1.53.34c-.15.13-.23.37-.51.33,0,0-.09.09-.12.14a2.48,2.48,0,0,1-.26.42c-.23.22-.49.41-.43.79a.16.16,0,0,1,0,.12.62.62,0,0,0,.32,1c.24.08.44.26.67.35a5.51,5.51,0,0,0,.87.28,2,2,0,0,0,.51,0,1.66,1.66,0,0,0,1.45-.49c.35-.33.67-.68,1-1a.6.6,0,0,0,.15-.31C682.92,406,682.58,405.88,682.38,405.65Zm-3.09.82c-.09.07,0,.31,0,.47v.53c-.37-.29-.37-.29-.36-1.09,0-.27,0-.27.56-.67C679.43,406,679.56,406.24,679.29,406.47Z" transform="translate(-662.52 -389.02)"/></svg>