<svg width="154" height="62" viewBox="0 0 154 62" fill="none" xmlns="http://www.w3.org/2000/svg">
<g filter="url(#filter0_d)">
<path d="M25.5 6.39939L26.5822 5.50338C26.45 5.34582 26.2845 5.21906 26.0975 5.13207C25.9105 5.04509 25.7065 5 25.5 5C25.2935 5 25.0895 5.04509 24.9025 5.13207C24.7155 5.21906 24.55 5.34582 24.4178 5.50338L25.5 6.39939ZM11.4089 23.1996L10.3267 22.3036C10.1367 22.5301 10.0235 22.8104 10.0033 23.1045C9.98304 23.3986 10.0568 23.6916 10.214 23.9417L11.4089 23.1996ZM25.5 45.6L24.3051 46.342C24.4317 46.5433 24.6079 46.7094 24.8169 46.8245C25.0259 46.9396 25.261 47 25.5 47C25.739 47 25.9741 46.9396 26.1831 46.8245C26.3921 46.7094 26.5683 46.5433 26.6949 46.342L25.5 45.6ZM39.5911 23.1996L40.786 23.9417C40.9432 23.6916 41.017 23.3986 40.9967 23.1045C40.9765 22.8104 40.8633 22.5301 40.6733 22.3036L39.5911 23.1996ZM25.5 17.5996L26.0242 16.3003L25.5 16.0875L24.9758 16.2975L25.5 17.5968V17.5996ZM24.4178 5.50338L10.3267 22.3036L12.4911 24.0957L26.5822 7.2954L24.4178 5.50338ZM10.214 23.9417L24.3051 46.342L26.6949 44.858L12.6038 22.4576L10.214 23.9417ZM26.6949 46.342L40.786 23.9417L38.3962 22.4576L24.3051 44.858L26.6949 46.342ZM40.6733 22.3036L26.5822 5.50338L24.4178 7.2954L38.5089 24.0957L40.6733 22.3036ZM11.9331 24.4989L26.0242 18.8988L24.9758 16.3003L10.8847 21.9004L11.9331 24.4989ZM24.9758 18.8988L39.0669 24.4989L40.1153 21.9004L26.0242 16.3003L24.9758 18.8988Z" fill="white"/>
</g>
<g filter="url(#filter1_d)">
<path d="M58.0556 28.0703H53.5556V31.1172H58.8369V33H51.2119V21.625H58.8213V23.5234H53.5556V26.2344H58.0556V28.0703ZM70.5306 23.5234H67.0463V33H64.7025V23.5234H61.265V21.625H70.5306V23.5234ZM82.7322 33H80.3885V28.125H75.8181V33H73.4744V21.625H75.8181V26.2344H80.3885V21.625H82.7322V33ZM93.2306 28.0703H88.7306V31.1172H94.0119V33H86.3869V21.625H93.9963V23.5234H88.7306V26.2344H93.2306V28.0703ZM101.198 28.8359H99.3306V33H96.9869V21.625H101.213C102.557 21.625 103.594 21.9245 104.323 22.5234C105.052 23.1224 105.417 23.9688 105.417 25.0625C105.417 25.8385 105.247 26.487 104.909 27.0078C104.575 27.5234 104.068 27.9349 103.385 28.2422L105.846 32.8906V33H103.331L101.198 28.8359ZM99.3306 26.9375H101.221C101.81 26.9375 102.266 26.7891 102.588 26.4922C102.911 26.1901 103.073 25.776 103.073 25.25C103.073 24.7135 102.919 24.2917 102.612 23.9844C102.31 23.6771 101.844 23.5234 101.213 23.5234H99.3306V26.9375ZM115.649 28.0703H111.149V31.1172H116.431V33H108.806V21.625H116.415V23.5234H111.149V26.2344H115.649V28.0703ZM128.015 21.625V29.1172C128.015 30.362 127.624 31.3464 126.843 32.0703C126.067 32.7943 125.005 33.1562 123.656 33.1562C122.328 33.1562 121.273 32.8047 120.492 32.1016C119.71 31.3984 119.312 30.4323 119.296 29.2031V21.625H121.64V29.1328C121.64 29.8776 121.817 30.4219 122.171 30.7656C122.531 31.1042 123.025 31.2734 123.656 31.2734C124.973 31.2734 125.643 30.5807 125.663 29.1953V21.625H128.015ZM134.599 21.625L137.521 29.875L140.428 21.625H143.506V33H141.154V29.8906L141.388 24.5234L138.318 33H136.709L133.646 24.5312L133.881 29.8906V33H131.537V21.625H134.599Z" fill="white"/>
</g>
<defs>
<filter id="filter0_d" x="0" y="0" width="51" height="62" filterUnits="userSpaceOnUse" color-interpolation-filters="sRGB">
<feFlood flood-opacity="0" result="BackgroundImageFix"/>
<feColorMatrix in="SourceAlpha" type="matrix" values="0 0 0 0 0 0 0 0 0 0 0 0 0 0 0 0 0 0 127 0"/>
<feOffset dy="5"/>
<feGaussianBlur stdDeviation="5"/>
<feColorMatrix type="matrix" values="0 0 0 0 0 0 0 0 0 0 0 0 0 0 0 0 0 0 0.15 0"/>
<feBlend mode="normal" in2="BackgroundImageFix" result="effect1_dropShadow"/>
<feBlend mode="normal" in="SourceGraphic" in2="effect1_dropShadow" result="shape"/>
</filter>
<filter id="filter1_d" x="41.2119" y="17.625" width="112.294" height="31.5312" filterUnits="userSpaceOnUse" color-interpolation-filters="sRGB">
<feFlood flood-opacity="0" result="BackgroundImageFix"/>
<feColorMatrix in="SourceAlpha" type="matrix" values="0 0 0 0 0 0 0 0 0 0 0 0 0 0 0 0 0 0 127 0"/>
<feOffset dy="6"/>
<feGaussianBlur stdDeviation="5"/>
<feColorMatrix type="matrix" values="0 0 0 0 0 0 0 0 0 0 0 0 0 0 0 0 0 0 0.1 0"/>
<feBlend mode="normal" in2="BackgroundImageFix" result="effect1_dropShadow"/>
<feBlend mode="normal" in="SourceGraphic" in2="effect1_dropShadow" result="shape"/>
</filter>
</defs>
</svg>
