<svg width="154" height="36" viewBox="0 0 154 36" fill="none" xmlns="http://www.w3.org/2000/svg">
<path fill-rule="evenodd" clip-rule="evenodd" d="M0.637771 0.552188C0.232777 0.98713 0 1.65656 0 2.52645V33.4679C0 34.3378 0.232777 35.0072 0.652911 35.427L0.762676 35.5197L18.1131 18.1825V17.7929L0.747536 0.459526L0.637771 0.552188Z" fill="url(#paint0_linear)"/>
<path fill-rule="evenodd" clip-rule="evenodd" d="M23.8852 23.9842L18.0979 18.1995V17.7948L23.8871 12.0101L24.012 12.0876L30.859 15.9756C32.8197 17.08 32.8197 18.8992 30.859 20.0187L24.012 23.9067C24.0101 23.9067 23.8852 23.9842 23.8852 23.9842Z" fill="url(#paint1_linear)"/>
<path fill-rule="evenodd" clip-rule="evenodd" d="M24.0101 23.9067L18.098 17.9972L0.637787 35.444C1.27556 36.1286 2.3486 36.2061 3.54845 35.5367L24.0101 23.9067Z" fill="url(#paint2_linear)"/>
<path fill-rule="evenodd" clip-rule="evenodd" d="M24.0101 12.0895L3.54845 0.474661C2.3505 -0.209901 1.27556 -0.117239 0.637787 0.567323L18.0961 17.9972L24.0101 12.0895Z" fill="url(#paint3_linear)"/>
<path opacity="0.2" fill-rule="evenodd" clip-rule="evenodd" d="M23.8852 23.7819L3.56358 35.3192C2.42809 35.9716 1.4156 35.9263 0.762688 35.3344L0.652924 35.444L0.762688 35.5367C1.4156 36.1267 2.42809 36.174 3.56358 35.5216L24.0253 23.9067L23.8852 23.7819Z" fill="black"/>
<path opacity="0.12" fill-rule="evenodd" clip-rule="evenodd" d="M30.8572 19.8164L23.8701 23.7819L23.995 23.9067L30.842 20.0187C31.8223 19.4589 32.3049 18.729 32.3049 17.9972C32.2425 18.6666 31.7447 19.3039 30.8572 19.8164Z" fill="black"/>
<path opacity="0.25" fill-rule="evenodd" clip-rule="evenodd" d="M3.54843 0.678275L30.8572 16.1811C31.7447 16.6785 32.2425 17.3309 32.3201 18.0003C32.3201 17.2704 31.8375 16.5386 30.8572 15.9788L3.54843 0.475932C1.5878 -0.643572 0 0.288718 0 2.52773V2.73007C0 0.491061 1.5878 -0.426101 3.54843 0.678275Z" fill="white"/>
<path fill-rule="evenodd" clip-rule="evenodd" d="M38.9854 17.0157C38.9854 12.0593 43.1546 8.02374 48.1148 8.02374C50.8571 8.02374 52.8082 9.09975 54.2806 10.501L52.5471 12.2332C51.4948 11.2461 50.0679 10.4802 48.1129 10.4802C44.4907 10.4802 41.6595 13.3943 41.6595 17.0138C41.6595 20.6333 44.4907 23.5512 48.111 23.5512C50.4596 23.5512 51.7957 22.6094 52.653 21.7509C53.3552 21.0493 53.815 20.0414 53.9929 18.659H48.1148V16.2082H56.3888C56.4759 16.647 56.5213 17.1727 56.5213 17.7419C56.5213 19.5819 56.016 21.8644 54.3904 23.4888C52.8082 25.134 50.7908 26.0115 48.1129 26.0115C43.1508 26.0115 38.9816 21.9797 38.9816 17.0195L38.9854 17.0157ZM63.2094 14.4287C60.0054 14.4287 57.39 16.8644 57.39 20.2173C57.39 23.5531 60.0035 26.0058 63.2094 26.0058C66.4153 26.0058 69.025 23.5493 69.025 20.2154C69.025 16.8625 66.4134 14.4269 63.2094 14.4287ZM63.2094 23.729C61.455 23.729 59.9391 22.2823 59.9391 20.2192C59.9391 18.1352 61.4531 16.7094 63.2094 16.7094C64.9637 16.7094 66.4777 18.1333 66.4777 20.2192C66.4777 22.2804 64.9656 23.729 63.2094 23.729ZM75.8986 14.4287C72.6946 14.4287 70.0829 16.8644 70.0829 20.2173C70.0829 23.5531 72.6946 26.0058 75.8986 26.0058C79.1026 26.0058 81.7142 23.5493 81.7142 20.2154C81.7142 16.8625 79.1045 14.4269 75.8986 14.4287ZM75.8986 23.729C74.1442 23.729 72.6283 22.2823 72.6283 20.2192C72.6283 18.1352 74.1423 16.7094 75.8986 16.7094C77.6529 16.7094 79.1688 18.1333 79.1688 20.2192C79.1688 22.2804 77.6529 23.729 75.8986 23.729ZM91.4719 14.7805V15.7222H91.3849C90.8152 15.0396 89.7176 14.4269 88.3361 14.4269C85.4387 14.4269 82.7797 16.9722 82.7797 20.2418C82.7797 23.485 85.4368 26.0096 88.3361 26.0096C89.7176 26.0096 90.8152 25.3969 91.3849 24.6953H91.4719V25.5273C91.4719 27.7418 90.2872 28.9275 88.3777 28.9275C86.8183 28.9275 85.8531 27.808 85.4576 26.8681L83.2396 27.789C83.8754 29.3227 85.5673 31.21 88.3758 31.21C91.3584 31.21 93.883 29.4532 93.883 25.1775V14.7786L91.4719 14.7805ZM88.5537 23.729C86.7994 23.729 85.3251 22.2577 85.3251 20.2418C85.3251 18.2033 86.7975 16.7112 88.5537 16.7112C90.2872 16.7112 91.6479 18.2014 91.6479 20.2418C91.6498 22.2577 90.2891 23.729 88.5537 23.729ZM95.6411 8.63834H98.1884V25.6578H95.6411V8.63834ZM105.17 23.729C103.875 23.729 102.952 23.1352 102.363 21.9759L110.111 18.7706L109.844 18.1125C109.364 16.8209 107.891 14.4287 104.884 14.4287C101.9 14.4287 99.4185 16.7755 99.4185 20.2192C99.4185 23.4623 101.877 26.0077 105.17 26.0077C107.827 26.0077 109.364 24.387 109.999 23.4415L108.024 22.1272C107.363 23.0936 106.462 23.7308 105.17 23.729ZM104.971 16.6659C105.98 16.6659 106.835 17.1708 107.121 17.8932L101.939 20.0433C101.875 17.8062 103.675 16.6659 104.971 16.6659ZM121.288 8.63834H115.198V25.6578H117.74V19.2112H121.29C124.108 19.2112 126.879 17.1727 126.879 13.9238C126.879 10.6807 124.11 8.64023 121.294 8.64023L121.288 8.63834ZM121.354 16.8417H117.74V11.0059H121.354C123.255 11.0059 124.337 12.5812 124.337 13.9238C124.337 15.2438 123.255 16.8417 121.354 16.8417ZM130.821 25.6578V8.63834H128.279V25.6578H130.821ZM142.238 25.6276V19.1034C142.238 16.0815 139.979 14.3966 137.062 14.3966C135.225 14.3966 133.319 15.2079 132.53 17.0025L134.785 17.9423C135.268 17.0025 136.165 16.6942 137.109 16.6942C138.423 16.6942 139.759 17.4828 139.78 18.886V19.0618C139.32 18.799 138.336 18.4037 137.128 18.4037C134.697 18.4037 132.221 19.7388 132.221 22.235C132.221 24.5137 134.216 25.9793 136.451 25.9793C138.162 25.9793 139.102 25.2134 139.693 24.3171H139.78V25.6314H142.236L142.238 25.6276ZM136.759 23.7252C135.927 23.7252 134.765 23.3091 134.765 22.2823C134.765 20.968 136.212 20.4612 137.461 20.4612C138.58 20.4612 139.104 20.7014 139.785 21.0304C139.591 22.5584 138.298 23.7063 136.759 23.7252ZM151.176 14.7691L148.262 22.1461H148.175L145.151 14.7691H142.412L146.947 25.0829L144.36 30.8185H147.011L154 14.7691H151.176Z" fill="#6F6F6F"/>
<defs>
<linearGradient id="paint0_linear" x1="16.545" y1="2.20355" x2="-11.2166" y2="9.60278" gradientUnits="userSpaceOnUse">
<stop stop-color="#00A0FF"/>
<stop offset="0.007" stop-color="#00A1FF"/>
<stop offset="0.26" stop-color="#00BEFF"/>
<stop offset="0.512" stop-color="#00D2FF"/>
<stop offset="0.76" stop-color="#00DFFF"/>
<stop offset="1" stop-color="#00E3FF"/>
</linearGradient>
<linearGradient id="paint1_linear" x1="33.4102" y1="17.9922" x2="-0.476668" y2="17.9922" gradientUnits="userSpaceOnUse">
<stop stop-color="#FFE000"/>
<stop offset="0.409" stop-color="#FFBD00"/>
<stop offset="0.775" stop-color="#FFA500"/>
<stop offset="1" stop-color="#FF9C00"/>
</linearGradient>
<linearGradient id="paint2_linear" x1="20.7981" y1="21.2064" x2="-1.50997" y2="58.7384" gradientUnits="userSpaceOnUse">
<stop stop-color="#FF3A44"/>
<stop offset="1" stop-color="#C31162"/>
</linearGradient>
<linearGradient id="paint3_linear" x1="-3.76136" y1="-9.75239" x2="6.19295" y2="6.99745" gradientUnits="userSpaceOnUse">
<stop stop-color="#32A071"/>
<stop offset="0.069" stop-color="#2DA771"/>
<stop offset="0.476" stop-color="#15CF74"/>
<stop offset="0.801" stop-color="#06E775"/>
<stop offset="1" stop-color="#00F076"/>
</linearGradient>
</defs>
</svg>
