<svg width="140" height="54" viewBox="0 0 140 54" fill="none" xmlns="http://www.w3.org/2000/svg">
<g filter="url(#filter0_d)">
<path d="M11.665 39H41V31.6984H22.1127L25.0644 24.3967H37.5556V17.0951H28.0177L31.7447 7.87716L25.4125 5L20.5225 17.0951H10V24.3967H17.5692L11.665 39Z" fill="white"/>
</g>
<g filter="url(#filter1_d)">
<path d="M53.0094 27.1172H57.9859V29H50.6656V17.625H53.0094V27.1172ZM63.4297 29H61.0859V17.625H63.4297V29ZM75.5375 19.5234H72.0531V29H69.7094V19.5234H66.2719V17.625H75.5375V19.5234ZM85.325 24.0703H80.825V27.1172H86.1063V29H78.4813V17.625H86.0906V19.5234H80.825V22.2344H85.325V24.0703ZM98.0109 25.2109C97.9224 26.4349 97.4693 27.3984 96.6516 28.1016C95.8391 28.8047 94.7661 29.1562 93.4328 29.1562C91.9745 29.1562 90.826 28.6667 89.9875 27.6875C89.1542 26.7031 88.7375 25.3542 88.7375 23.6406V22.9453C88.7375 21.8516 88.9302 20.888 89.3156 20.0547C89.701 19.2214 90.2505 18.5833 90.9641 18.1406C91.6828 17.6927 92.5161 17.4688 93.4641 17.4688C94.7766 17.4688 95.8339 17.8203 96.6359 18.5234C97.438 19.2266 97.9016 20.2135 98.0266 21.4844H95.6828C95.6255 20.75 95.4198 20.2188 95.0656 19.8906C94.7167 19.5573 94.1828 19.3906 93.4641 19.3906C92.6828 19.3906 92.0969 19.6719 91.7063 20.2344C91.3208 20.7917 91.1229 21.6589 91.1125 22.8359V23.6953C91.1125 24.9245 91.2974 25.8229 91.6672 26.3906C92.0422 26.9583 92.6307 27.2422 93.4328 27.2422C94.1568 27.2422 94.6958 27.0781 95.05 26.75C95.4094 26.4167 95.6151 25.9036 95.6672 25.2109H98.0109ZM110.494 23.5703C110.494 24.6901 110.296 25.6719 109.9 26.5156C109.504 27.3594 108.936 28.0104 108.197 28.4688C107.463 28.9271 106.619 29.1562 105.666 29.1562C104.723 29.1562 103.882 28.9297 103.142 28.4766C102.403 28.0234 101.83 27.3776 101.423 26.5391C101.017 25.6953 100.811 24.7266 100.806 23.6328V23.0703C100.806 21.9505 101.007 20.9661 101.408 20.1172C101.814 19.263 102.384 18.6094 103.119 18.1562C103.858 17.6979 104.702 17.4688 105.65 17.4688C106.598 17.4688 107.439 17.6979 108.173 18.1562C108.913 18.6094 109.483 19.263 109.884 20.1172C110.291 20.9661 110.494 21.9479 110.494 23.0625V23.5703ZM108.119 23.0547C108.119 21.862 107.905 20.9557 107.478 20.3359C107.051 19.7161 106.442 19.4062 105.65 19.4062C104.864 19.4062 104.257 19.7135 103.83 20.3281C103.403 20.9375 103.186 21.8333 103.181 23.0156V23.5703C103.181 24.7318 103.395 25.6328 103.822 26.2734C104.249 26.9141 104.864 27.2344 105.666 27.2344C106.452 27.2344 107.056 26.9271 107.478 26.3125C107.9 25.6927 108.114 24.7917 108.119 23.6094V23.0547ZM116.289 29H113.945V17.625H116.289V29ZM129.319 29H126.975L122.412 21.5156V29H120.069V17.625H122.412L126.983 25.125V17.625H129.319V29Z" fill="white"/>
</g>
<defs>
<filter id="filter0_d" x="0" y="0" width="51" height="54" filterUnits="userSpaceOnUse" color-interpolation-filters="sRGB">
<feFlood flood-opacity="0" result="BackgroundImageFix"/>
<feColorMatrix in="SourceAlpha" type="matrix" values="0 0 0 0 0 0 0 0 0 0 0 0 0 0 0 0 0 0 127 0"/>
<feOffset dy="5"/>
<feGaussianBlur stdDeviation="5"/>
<feColorMatrix type="matrix" values="0 0 0 0 0 0 0 0 0 0 0 0 0 0 0 0 0 0 0.15 0"/>
<feBlend mode="normal" in2="BackgroundImageFix" result="effect1_dropShadow"/>
<feBlend mode="normal" in="SourceGraphic" in2="effect1_dropShadow" result="shape"/>
</filter>
<filter id="filter1_d" x="40.6656" y="13.4688" width="98.6531" height="31.6875" filterUnits="userSpaceOnUse" color-interpolation-filters="sRGB">
<feFlood flood-opacity="0" result="BackgroundImageFix"/>
<feColorMatrix in="SourceAlpha" type="matrix" values="0 0 0 0 0 0 0 0 0 0 0 0 0 0 0 0 0 0 127 0"/>
<feOffset dy="6"/>
<feGaussianBlur stdDeviation="5"/>
<feColorMatrix type="matrix" values="0 0 0 0 0 0 0 0 0 0 0 0 0 0 0 0 0 0 0.1 0"/>
<feBlend mode="normal" in2="BackgroundImageFix" result="effect1_dropShadow"/>
<feBlend mode="normal" in="SourceGraphic" in2="effect1_dropShadow" result="shape"/>
</filter>
</defs>
</svg>
