<svg width="141" height="26" viewBox="0 0 141 26" fill="none" xmlns="http://www.w3.org/2000/svg"><path d="M32.281 24.56V9.284L20.814 24.075c-.53.654-1.305.99-2.308.99s-1.779-.336-2.309-.99L4.75 9.283V24.56H0V2.97c0-.729.265-1.251.814-1.606.548-.337 1.21-.505 2.024-.505.625 0 1.117.094 1.476.262.36.168.7.448 1.003.84l13.265 17.37L31.94 1.961c.302-.392.605-.672.946-.84.34-.168.794-.262 1.4-.262.795 0 1.476.168 2.025.505.548.336.813.877.813 1.606v21.59H32.28zm17.598 0c-1.722 0-3.16-.149-4.314-.429-1.155-.28-2.063-.728-2.763-1.363-.681-.617-1.173-1.438-1.457-2.447-.284-1.009-.435-2.241-.435-3.717V14.12c0-1.475.151-2.727.435-3.735.284-1.027.776-1.85 1.457-2.466.681-.616 1.608-1.083 2.763-1.363 1.154-.28 2.592-.43 4.314-.43h6.244c1.74 0 3.198.15 4.333.43 1.154.28 2.063.747 2.763 1.382.681.635 1.173 1.457 1.457 2.484.284 1.027.435 2.26.435 3.736v2.446c0 1.476-.151 2.709-.435 3.717-.284 1.009-.776 1.83-1.457 2.447-.681.616-1.608 1.083-2.763 1.363-1.154.28-2.592.43-4.333.43H49.88zm10.104-10.272c0-.765-.057-1.4-.189-1.905-.133-.504-.36-.896-.681-1.176-.34-.28-.795-.467-1.4-.58a15.14 15.14 0 0 0-2.271-.149h-4.863c-.927 0-1.665.056-2.252.15-.586.093-1.04.299-1.381.579-.34.28-.568.672-.681 1.176-.133.505-.19 1.14-.19 1.905v2.186c0 .765.057 1.4.19 1.886.132.486.36.878.68 1.158.341.28.796.485 1.382.598.587.112 1.344.168 2.252.168h4.863c.927 0 1.684-.056 2.27-.168.606-.113 1.06-.318 1.4-.598.341-.28.569-.672.682-1.158.132-.486.19-1.12.19-1.886v-2.186zM87.95 24.56V14.289c0-.765-.056-1.4-.189-1.886-.132-.486-.34-.878-.662-1.158-.303-.28-.738-.486-1.268-.598-.549-.112-1.23-.168-2.044-.168h-5.582c-.813 0-1.476.056-2.024.168-.55.112-.965.318-1.287.598-.322.28-.549.672-.681 1.158-.133.486-.19 1.12-.19 1.886v10.273h-5.127V14.12c0-1.476.151-2.728.435-3.736.284-1.027.776-1.85 1.457-2.466.681-.616 1.608-1.083 2.763-1.363 1.154-.28 2.592-.43 4.314-.43h6.244c1.74 0 3.198.15 4.333.43 1.155.28 2.063.728 2.763 1.363.681.617 1.173 1.439 1.457 2.466.284 1.027.435 2.26.435 3.735v10.44H87.95zm9.102 0V.188h5.241V24.58h-5.241v-.018zm11.05-19.48c-.643 0-1.097-.13-1.362-.373-.265-.243-.397-.654-.397-1.196v-1.98c0-.541.132-.933.397-1.176.265-.243.719-.355 1.362-.355h1.684c.663 0 1.136.112 1.401.355.265.243.397.635.397 1.177v1.98c0 .54-.132.933-.397 1.195-.265.242-.738.373-1.401.373h-1.684zm-1.741 19.48V6.612h5.242V24.56h-5.242z" fill="#FFF"/><path d="m134.045 5.865 6.622.074-9.328 9.021 9.442 9.414h-6.415l-6.301-6.668-6.414 6.668h-6.264m8.307-21.199a.714.714 0 0 0-.17-.467.609.609 0 0 0-.454-.205h-.038a.635.635 0 0 0-.435.168.591.591 0 0 0-.208.448.646.646 0 0 0 .605.673c.379 0 .681-.262.7-.617zm-5.487-.187a.71.71 0 0 0-.171-.467.606.606 0 0 0-.454-.205h-.038a.637.637 0 0 0-.435.168.595.595 0 0 0-.208.448.647.647 0 0 0 .606.673c.378 0 .681-.262.7-.617zm0 5.417a.71.71 0 0 0-.171-.467.606.606 0 0 0-.454-.206h-.038a.637.637 0 0 0-.435.169.595.595 0 0 0-.208.448.647.647 0 0 0 .606.672c.378 0 .681-.261.7-.616z" fill="#31CE93"/><path d="M124.432 3.941c.133-.205.208-.448.208-.71a1.57 1.57 0 0 0-1.495-1.662 1.61 1.61 0 0 0-1.154.392c-.321.28-.511.673-.53 1.084a1.605 1.605 0 0 0 1.514 1.662h.095c.227 0 .473-.056.681-.15l4.655 4.931.662-.653-4.636-4.894zm-1.419-.168a.635.635 0 0 1-.606-.672c0-.168.076-.337.209-.449a.603.603 0 0 1 .435-.168h.038c.17 0 .34.075.454.206.113.13.17.299.17.467a.667.667 0 0 1-.7.616zm-4.087 5.397c.132-.224.208-.466.208-.71a1.57 1.57 0 0 0-1.495-1.662 1.64 1.64 0 0 0-1.154.393c-.322.28-.511.672-.53 1.083a1.603 1.603 0 0 0 1.514 1.662h.094c.227 0 .473-.056.682-.149l4.749 5.024.662-.654-4.73-4.986zm-1.4-.167a.634.634 0 0 1-.606-.673c0-.168.076-.336.208-.448a.604.604 0 0 1 .435-.168h.038c.171 0 .341.075.454.205a.71.71 0 0 1 .171.467.667.667 0 0 1-.7.617zm1.4-5.23c.132-.224.208-.467.227-.729a1.571 1.571 0 0 0-1.495-1.662 1.638 1.638 0 0 0-1.154.392c-.322.28-.511.673-.53 1.084a1.603 1.603 0 0 0 1.514 1.662h.094c.227 0 .454-.056.663-.13l7.398 7.825.662-.654-7.379-7.788zm-1.4-.187a.634.634 0 0 1-.606-.672c0-.168.076-.337.208-.449a.604.604 0 0 1 .435-.168h.038c.171 0 .341.075.454.206a.71.71 0 0 1 .171.467.667.667 0 0 1-.7.616z" fill="#31CE93"/></svg>