<svg width="104" height="28" viewBox="0 0 104 28" fill="none" xmlns="http://www.w3.org/2000/svg">
<path d="M14.3003 26.1952C12.7358 26.4689 11.1438 26.5509 9.49701 26.7695L4.47393 12.1133V27.3985C2.90946 27.5625 1.4822 27.7813 0 28V0H4.17219L9.88122 15.887V0H14.3003V26.1952ZM22.9464 10.2539C24.6483 10.2539 27.2558 10.1719 28.8203 10.1719V14.5468C26.8714 14.5468 24.5934 14.5468 22.9464 14.6288V21.1367C25.5266 20.9727 28.1067 20.7538 30.7141 20.6717V24.8824L18.5547 25.8397V0H30.7141V4.37501H22.9464V10.2539ZM47.0456 4.37511H42.4893V24.5001C41.0071 24.5001 39.5249 24.5001 38.0978 24.5546V4.37511H33.5415V0H47.0458L47.0456 4.37511ZM54.182 9.95321H60.1931V14.3281H54.182V24.254H49.8724V0H62.1419V4.37501H54.182V9.95321ZM69.2783 20.4258C71.7761 20.4803 74.3012 20.672 76.7442 20.8085V25.1289C72.8192 24.8826 68.8941 24.6369 64.8868 24.5546V0H69.2783V20.4258ZM80.4496 25.4297C81.8494 25.5118 83.3316 25.5939 84.7589 25.7577V0H80.4496V25.4297ZM104 0L98.428 13.3164L104 28C102.353 27.7813 100.706 27.4805 99.0592 27.207L95.9028 19.1134L92.6917 26.5509C91.0994 26.2773 89.5624 26.1952 87.9707 25.9765L93.6249 13.1522L88.5194 0H93.2403L96.1223 7.35549L99.1966 0H104V0Z" fill="#D81F26"/>
</svg>
