<svg version="1.1" id="Layer_1" xmlns="http://www.w3.org/2000/svg" x="0" y="0" width="442" height="179" viewBox="0 0 442 179" xml:space="preserve"><style>.st0{fill:#173d94}.st1{fill:#fff}</style><path class="st0" d="M93.54 3.956c-47.467 0-85.947 38.48-85.947 85.952 0 47.468 38.479 85.947 85.947 85.947 47.473 0 85.953-38.479 85.953-85.947-.001-47.472-38.481-85.952-85.953-85.952zm0 155.071c-38.171.005-69.119-30.947-69.119-69.119 0-38.182 30.947-69.124 69.119-69.124 38.177 0 69.124 30.942 69.124 69.124 0 38.172-30.948 69.119-69.124 69.119z"/><path class="st1" d="M223.869 139.17c-1.702.823-5.743 1.831-10.859 1.831-14.71 0-22.289-9.22-22.289-21.344 0-14.524 10.355-22.54 23.235-22.54 4.993 0 8.777.945 10.484 1.892l-2.021 7.579c-1.892-.823-4.607-1.579-8.083-1.579-7.579 0-13.512 4.607-13.512 14.083 0 8.52 5.049 13.888 13.574 13.888 2.972 0 6.129-.565 8.083-1.388l1.388 7.578zm18.335-9.789-3.033 10.926h-9.913l12.946-42.563h12.628l13.26 42.563h-10.417l-3.285-10.926h-12.186zm10.798-7.198-2.653-9.029c-.756-2.524-1.517-5.682-2.149-8.211h-.123c-.633 2.529-1.266 5.748-1.959 8.211l-2.524 9.029h9.408zm22.124-23.869c2.967-.509 7.131-.884 13.003-.884 5.938 0 10.17 1.136 13.009 3.409 2.781 2.148 4.55 5.687 4.55 9.851 0 4.17-1.326 7.77-3.918 10.104-3.28 3.033-8.145 4.483-13.825 4.483-1.266 0-2.401-.062-3.286-.252v15.281h-9.532V98.314zm9.532 19.323c.823.19 1.769.252 3.219.252 5.116 0 8.273-2.586 8.273-6.879 0-3.918-2.715-6.253-7.579-6.253-1.893 0-3.219.124-3.913.314v12.566zm38.229-19.893v42.563h-9.6V97.744h9.6zm18 8.083h-11.491v-8.083h32.711v8.083h-11.62v34.479h-9.6v-34.479zm33.112 23.554-3.033 10.926h-9.913l12.946-42.563h12.628l13.26 42.563H389.47l-3.285-10.926h-12.186zm10.798-7.198-2.653-9.029c-.756-2.524-1.517-5.682-2.149-8.211h-.123c-.633 2.529-1.266 5.748-1.959 8.211l-2.524 9.029h9.408zm22.185-24.439h9.6v34.479h16.921v8.083h-26.521V97.744z"/><path class="st0" d="M231.638 58.18c0 14.021-8.396 22.417-20.9 22.417-12.566 0-20.016-9.532-20.016-21.723 0-12.751 8.206-22.289 20.71-22.289 13.069-.001 20.206 9.79 20.206 21.595zm-30.752.508c0 8.396 3.918 14.268 10.355 14.268 6.504 0 10.232-6.185 10.232-14.458 0-7.707-3.599-14.273-10.232-14.273-6.565 0-10.355 6.191-10.355 14.463zm37.092-20.777c2.967-.509 7.132-.884 13.009-.884 5.934 0 10.165 1.136 13.003 3.409 2.781 2.149 4.55 5.687 4.55 9.852 0 4.17-1.326 7.769-3.918 10.103-3.28 3.034-8.144 4.484-13.825 4.484-1.265 0-2.401-.062-3.285-.252v15.28h-9.533V37.911zm9.533 19.322c.822.19 1.769.252 3.218.252 5.116 0 8.273-2.586 8.273-6.879 0-3.918-2.715-6.252-7.579-6.252-1.892 0-3.219.124-3.912.314v12.565zM284.35 37.34v42.562h-9.599V37.34h9.599zm8.344 42.562V37.34h11.24l8.838 15.6c2.524 4.484 4.987 9.79 6.946 14.587h.124c-.565-5.62-.756-11.368-.756-17.805V37.34h8.838v42.562h-10.098l-9.096-16.417c-2.524-4.545-5.368-10.042-7.389-15.029h-.252c.313 5.682.442 11.682.442 18.628v12.817h-8.837zm53.252-42.562v42.562h-9.6V37.34h9.6zm47.303 20.84c0 14.021-8.396 22.417-20.9 22.417-12.566 0-20.017-9.532-20.017-21.723 0-12.751 8.206-22.289 20.711-22.289 13.069-.001 20.206 9.79 20.206 21.595zm-30.752.508c0 8.396 3.918 14.268 10.355 14.268 6.504 0 10.231-6.185 10.231-14.458 0-7.707-3.599-14.273-10.231-14.273-6.566 0-10.355 6.191-10.355 14.463zm37.097 21.214V37.34h11.24l8.838 15.6c2.524 4.484 4.987 9.79 6.946 14.587h.129c-.571-5.62-.762-11.368-.762-17.805V37.34h8.844v42.562h-10.108l-9.09-16.417c-2.524-4.545-5.368-10.042-7.389-15.029h-.252c.313 5.682.442 11.682.442 18.628v12.817h-8.838z"/><path class="st1" d="M135.017 128.192c-10.391 11.245-25.225 18.33-41.745 18.33-31.416.005-56.887-25.466-56.887-56.887 0-31.42 25.471-56.892 56.887-56.892 16.443 0 31.214 7.018 41.601 18.175l-10.9 12.52c-8.021-8.659-18.458-14.263-30.798-14.263-22.34 0-40.455 18.119-40.455 40.459 0 22.341 18.114 40.454 40.455 40.454 12.664 0 23.965-5.836 31.384-14.946l10.458 13.05z"/></svg>