<svg width="148" height="54" viewBox="0 0 148 54" fill="none" xmlns="http://www.w3.org/2000/svg">
<g filter="url(#filter0_d)">
<path d="M85.0266 25.3243C85.0266 24.9233 84.8833 24.6108 84.5969 24.3868C84.3156 24.1629 83.8182 23.9311 83.1047 23.6915C82.3911 23.4519 81.8078 23.2202 81.3547 22.9962C79.8807 22.2723 79.1437 21.2775 79.1437 20.0118C79.1437 19.3816 79.326 18.8269 79.6906 18.3478C80.0604 17.8634 80.5812 17.4884 81.2531 17.2228C81.925 16.9519 82.6802 16.8165 83.5187 16.8165C84.3365 16.8165 85.0682 16.9624 85.7141 17.254C86.3651 17.5457 86.8703 17.9624 87.2297 18.504C87.5891 19.0405 87.7687 19.6551 87.7687 20.3478H85.0344C85.0344 19.8842 84.8911 19.5249 84.6047 19.2697C84.3234 19.0144 83.9406 18.8868 83.4562 18.8868C82.9667 18.8868 82.5786 18.9962 82.2922 19.215C82.0109 19.4285 81.8703 19.7019 81.8703 20.0353C81.8703 20.3269 82.0266 20.5926 82.3391 20.8322C82.6516 21.0665 83.201 21.3113 83.9875 21.5665C84.774 21.8165 85.4198 22.0874 85.925 22.379C87.1542 23.0874 87.7687 24.0639 87.7687 25.3087C87.7687 26.3035 87.3937 27.0848 86.6437 27.6525C85.8937 28.2202 84.8651 28.504 83.5578 28.504C82.6359 28.504 81.8 28.34 81.05 28.0118C80.3052 27.6785 79.7427 27.2254 79.3625 26.6525C78.9875 26.0743 78.8 25.4103 78.8 24.6603H81.55C81.55 25.2697 81.7062 25.7202 82.0187 26.0118C82.3365 26.2983 82.8495 26.4415 83.5578 26.4415C84.0109 26.4415 84.3677 26.3452 84.6281 26.1525C84.8937 25.9545 85.0266 25.6785 85.0266 25.3243ZM99.7047 19.09H96.2906V28.3478H93.5484V19.09H90.1969V16.9728H99.7047V19.09ZM109.523 23.5275H105.211V26.2384H110.305V28.3478H102.469V16.9728H110.32V19.09H105.211V21.4884H109.523V23.5275ZM119.483 26.2228H115.725L115.069 28.3478H112.139L116.311 16.9728H118.889L123.092 28.3478H120.147L119.483 26.2228ZM116.381 24.1056H118.827L117.6 20.1603L116.381 24.1056ZM129.13 16.9728L131.669 24.8868L134.2 16.9728H137.809V28.3478H135.059V25.6915L135.325 20.254L132.575 28.3478H130.763L128.005 20.2462L128.27 25.6915V28.3478H125.528V16.9728H129.13Z" fill="white"/>
</g>
<g filter="url(#filter1_d)">
<path d="M56.8806 4C51.2996 4 46.7594 8.53842 46.7594 14.1194C46.7594 15.0526 46.9271 15.9402 47.1658 16.7987L43.1104 23.1981C42.5727 23.0741 42.0186 22.9921 41.4463 22.9921C39.6547 22.9921 38.0307 23.661 36.753 24.7309L24.6615 19.4252C24.6706 19.2812 24.7034 19.1481 24.7034 19.0041C24.7034 14.9505 21.4026 11.6533 17.3508 11.6533C13.299 11.6533 10 14.9487 10 19.0041C10 23.0595 13.299 26.3567 17.3508 26.3567C18.8599 26.3567 20.2634 25.9011 21.4299 25.1155L34.1265 30.6892C34.3124 34.5806 37.5076 37.6991 41.4463 37.6991C45.4999 37.6991 48.7971 34.4001 48.7971 30.3465C48.7971 30.0421 48.7461 29.7505 48.706 29.4552L55.5154 24.1039C55.9638 24.1677 56.4122 24.2424 56.8788 24.2424C62.4598 24.2424 67 19.7022 67 14.1212C67 8.5366 62.4598 4 56.8806 4ZM13.9041 19.0041C13.9041 17.1049 15.4516 15.5575 17.3508 15.5575C19.2518 15.5575 20.7993 17.1031 20.7993 19.0041C20.7993 20.9052 19.2518 22.4508 17.3508 22.4508C15.4516 22.4508 13.9041 20.9052 13.9041 19.0041ZM41.4463 33.9098C39.4779 33.9098 37.8776 32.3114 37.8776 30.3429C37.8776 28.3762 39.4779 26.7723 41.4463 26.7723C43.413 26.7723 45.0133 28.3744 45.0133 30.3429C45.0133 32.3114 43.413 33.9098 41.4463 33.9098ZM56.8806 19.9009C53.6909 19.9009 51.0991 17.3072 51.0991 14.1194C51.0991 10.9316 53.6909 8.33793 56.8806 8.33793C60.0703 8.33793 62.6621 10.9316 62.6621 14.1194C62.6621 17.3072 60.0703 19.9009 56.8806 19.9009Z" fill="white"/>
</g>
<defs>
<filter id="filter0_d" x="68.8" y="12.8165" width="79.0094" height="31.6875" filterUnits="userSpaceOnUse" color-interpolation-filters="sRGB">
<feFlood flood-opacity="0" result="BackgroundImageFix"/>
<feColorMatrix in="SourceAlpha" type="matrix" values="0 0 0 0 0 0 0 0 0 0 0 0 0 0 0 0 0 0 127 0"/>
<feOffset dy="6"/>
<feGaussianBlur stdDeviation="5"/>
<feColorMatrix type="matrix" values="0 0 0 0 0 0 0 0 0 0 0 0 0 0 0 0 0 0 0.1 0"/>
<feBlend mode="normal" in2="BackgroundImageFix" result="effect1_dropShadow"/>
<feBlend mode="normal" in="SourceGraphic" in2="effect1_dropShadow" result="shape"/>
</filter>
<filter id="filter1_d" x="0" y="0" width="77" height="53.6991" filterUnits="userSpaceOnUse" color-interpolation-filters="sRGB">
<feFlood flood-opacity="0" result="BackgroundImageFix"/>
<feColorMatrix in="SourceAlpha" type="matrix" values="0 0 0 0 0 0 0 0 0 0 0 0 0 0 0 0 0 0 127 0"/>
<feOffset dy="6"/>
<feGaussianBlur stdDeviation="5"/>
<feColorMatrix type="matrix" values="0 0 0 0 0 0 0 0 0 0 0 0 0 0 0 0 0 0 0.1 0"/>
<feBlend mode="normal" in2="BackgroundImageFix" result="effect1_dropShadow"/>
<feBlend mode="normal" in="SourceGraphic" in2="effect1_dropShadow" result="shape"/>
</filter>
</defs>
</svg>
