<?xml version="1.0" encoding="UTF-8"?>
<svg xmlns="http://www.w3.org/2000/svg" xmlns:xlink="http://www.w3.org/1999/xlink" width="100px" height="23px" viewBox="0 0 101 23" version="1.1">
<g id="surface1">
<path style=" stroke:none;fill-rule:nonzero;fill:rgb(255,255,255);fill-opacity:1;" d="M 100.910156 10.058594 C 100.910156 4.15625 96.828125 0 91.109375 0 C 83.832031 0 78.953125 5.332031 78.953125 12.941406 C 78.953125 18.886719 83.074219 23 88.894531 23 C 94.1875 23 98.128906 20.417969 99.75 16.316406 L 93.875 16.316406 C 93.097656 17.59375 91.433594 18.398438 89.40625 18.398438 C 86.28125 18.398438 84.335938 16.316406 84.152344 13.359375 L 100.597656 13.359375 C 100.789062 12.230469 100.910156 11.277344 100.910156 10.058594 Z M 84.585938 9.367188 C 85.113281 6.652344 87.734375 4.492188 90.890625 4.492188 C 93.621094 4.492188 95.6875 6.5 95.6875 9.367188 Z M 63.152344 22.460938 L 64.210938 16.792969 C 67.4375 17.441406 67.921875 15.613281 68.757812 11.207031 L 69.171875 9.019531 C 70.339844 2.863281 72.710938 -0.203125 79.464844 0.621094 L 78.398438 6.296875 C 75.171875 5.648438 74.605469 8.105469 73.890625 11.925781 L 73.476562 14.109375 C 72.308594 20.339844 69.867188 23.292969 63.152344 22.460938 Z M 55.269531 22.480469 L 59.25 0.527344 L 64.492188 0.527344 L 60.53125 22.480469 Z M 25.171875 0.527344 L 30.273438 0.527344 L 31.929688 16.40625 L 38.613281 0.527344 L 43.664062 0.527344 L 45.4375 16.570312 L 51.882812 0.527344 L 56.960938 0.527344 L 47.726562 22.480469 L 41.949219 22.480469 L 40.074219 7.375 L 33.691406 22.480469 L 28.109375 22.480469 Z M 25.171875 0.527344 "/>
<path style=" stroke:none;fill-rule:nonzero;fill:rgb(0%,72.54902%,100%);fill-opacity:1;" d="M 6.136719 6.347656 L 0.0898438 12.179688 L 10.382812 12.179688 L 11.453125 9.640625 L 6.238281 9.640625 L 9.496094 6.347656 L 7.609375 3.066406 L 16.453125 3.066406 L 8.285156 22.480469 L 11.351562 22.480469 L 20.585938 0.527344 L 2.742188 0.527344 Z M 6.136719 6.347656 "/>
</g>
</svg>
